<svg xmlns="http://www.w3.org/2000/svg" xmlns:xlink="http://www.w3.org/1999/xlink" version="1.1" id="Layer_1" x="0px" y="0px" width="100px" height="100px" viewBox="0 0 100 100" enable-background="new 0 0 100 100" xml:space="preserve">
<path d="M50,98c26.467,0,48-21.533,48-48C98,23.533,76.467,2,50,2C23.533,2,2,23.533,2,50C2,76.467,23.533,98,50,98z M40.492,49.308  l17.632-17.633c0.383-0.383,1.002-0.383,1.385,0s0.383,1.002,0,1.385L42.569,50l16.939,16.94c0.383,0.382,0.383,1.002,0,1.385  c-0.191,0.191-0.441,0.287-0.692,0.287s-0.501-0.096-0.692-0.287L40.492,50.692C40.109,50.31,40.109,49.69,40.492,49.308z"/>
</svg>